<svg version="1.2" xmlns="http://www.w3.org/2000/svg" viewBox="0 0 90 90" width="90" height="90">
	<title>image</title>
	<style>
		.s0 { fill: #ffffff } 
	</style>
	<path id="Layer" fill-rule="evenodd" class="s0" d="m45 41.3h27.9l-6.4-6.5c-0.5-0.5-0.8-1.1-0.9-1.8 0-0.7 0.2-1.3 0.6-1.9l0.3-0.3c0.4-0.5 1.1-0.7 1.7-0.8 0.7 0 1.4 0.2 1.9 0.6l0.3 0.2 11.3 11.3c0.4 0.4 0.7 1.1 0.8 1.7 0 0.7-0.2 1.4-0.6 1.9l-0.2 0.3-11.3 11.3c-0.5 0.5-1.1 0.8-1.9 0.8-0.7 0-1.4-0.2-1.9-0.7-0.5-0.4-0.9-1.1-1-1.8 0-0.7 0.2-1.4 0.6-2l0.2-0.3 6.5-6.4h-27.9v25.3q0 0.6-0.3 1.2-0.2 0.5-0.7 0.9-0.5 0.4-1.1 0.6-0.6 0.2-1.2 0.1l-31.9-5.7c-0.6-0.1-1.2-0.4-1.6-0.9-0.5-0.5-0.7-1.2-0.7-1.8v-45c0-0.7 0.2-1.3 0.7-1.9 0.4-0.5 1-0.8 1.7-0.9l31.8-5.2q0.6-0.1 1.2 0 0.6 0.2 1.1 0.6 0.5 0.4 0.7 0.9 0.3 0.6 0.3 1.2zm-5.6-21.6l-26.3 4.3v40.3l26.3 4.6zm-7.5 23.5c1 0 1.9 0.4 2.6 1.1 0.7 0.7 1.1 1.6 1.1 2.6 0 1-0.4 2-1.1 2.7-0.7 0.7-1.6 1.1-2.6 1.1-1 0-2-0.4-2.7-1.1-0.7-0.7-1.1-1.7-1.1-2.7 0-1 0.4-1.9 1.1-2.6 0.7-0.7 1.7-1.1 2.7-1.1zm16.8 7.5h5.7v15.9c0 0.7-0.2 1.3-0.7 1.9-0.4 0.5-1 0.8-1.7 0.9h-0.4-2.9zm0.1-13.1l-0.1-4.8v-13.9h2.8c0.7 0 1.4 0.2 1.9 0.6 0.5 0.5 0.8 1.1 0.9 1.8l0.1 0.4v15.9z"/>
</svg>