<svg version="1.2" xmlns="http://www.w3.org/2000/svg" viewBox="0 0 90 90" width="90" height="90">
	<title>image</title>
	<style>
		.s0 { fill: #ffffff } 
	</style>
	<path id="Layer" fill-rule="evenodd" class="s0" d="m59.4 10.4c4.5 1.8 8.6 4.6 12.1 8.1 3.5 3.5 6.3 7.6 8.1 12.1 1.9 4.6 2.9 9.5 2.9 14.4 0 9.9-4 19.5-11 26.5-7 7-16.6 11-26.5 11-4.9 0-9.8-1-14.4-2.9-4.5-1.8-8.6-4.6-12.1-8.1-7-7-11-16.6-11-26.5 0-9.9 4-19.5 11-26.5 3.5-3.5 7.6-6.3 12.1-8.1 4.6-1.9 9.5-2.9 14.4-2.9 4.9 0 9.8 1 14.4 2.9zm-14.4 64.6c6.7 0 13.2-2.3 18.5-6.4-1.6-3.4-11.5-6.7-18.5-6.7-7 0-16.9 3.3-18.5 6.7 5.1 4 11.5 6.4 18.5 6.4zm30-30c0-16.5-13.5-30-30-30-16.5 0-30 13.5-30 30 0 6.6 2.2 12.9 6.2 18.1 5.3-6.5 18.3-8.7 23.8-8.7 5.5 0 18.5 2.2 23.8 8.7 3.9-5 6.2-11.3 6.2-18.1zm-16.9-9.4c0 7.3-5.8 13.2-13.1 13.2-7.3 0-13.1-5.9-13.1-13.2 0-7.2 5.8-13.1 13.1-13.1 7.3 0 13.1 5.9 13.1 13.1zm-9.1 4c1-1.1 1.6-2.5 1.6-4 0-1.5-0.6-2.9-1.6-4-1.1-1-2.5-1.6-4-1.6-1.5 0-2.9 0.6-4 1.6-1 1.1-1.6 2.5-1.6 4 0 1.5 0.6 2.9 1.6 4 1.1 1.1 2.5 1.7 4 1.7 1.5 0 2.9-0.6 4-1.7z"/>
</svg>